<svg width="25" height="24" viewBox="0 0 25 24" fill="none" xmlns="http://www.w3.org/2000/svg">
<path d="M3.39001 6H5.39001H21.39" stroke="#778899" stroke-width="1.5" stroke-linecap="round" stroke-linejoin="round"/>
<path d="M19.39 6V20C19.39 20.5304 19.1793 21.0391 18.8042 21.4142C18.4292 21.7893 17.9204 22 17.39 22H7.39001C6.85958 22 6.35087 21.7893 5.9758 21.4142C5.60073 21.0391 5.39001 20.5304 5.39001 20V6M8.39001 6V4C8.39001 3.46957 8.60073 2.96086 8.9758 2.58579C9.35087 2.21071 9.85958 2 10.39 2H14.39C14.9204 2 15.4292 2.21071 15.8042 2.58579C16.1793 2.96086 16.39 3.46957 16.39 4V6" stroke="#778899" stroke-width="1.5" stroke-linecap="round" stroke-linejoin="round"/>
<path d="M10.39 11V17" stroke="#778899" stroke-width="1.5" stroke-linecap="round" stroke-linejoin="round"/>
<path d="M14.39 11V17" stroke="#778899" stroke-width="1.5" stroke-linecap="round" stroke-linejoin="round"/>
</svg>
